<mxfile host="65bd71144e">
    <diagram id="ZDBNiU3b7XaUQI3_AcJt" name="Page-1">
        <mxGraphModel dx="1398" dy="594" grid="1" gridSize="10" guides="1" tooltips="1" connect="1" arrows="1" fold="1" page="1" pageScale="1" pageWidth="850" pageHeight="1100" math="0" shadow="0">
            <root>
                <mxCell id="0"/>
                <mxCell id="1" parent="0"/>
                <mxCell id="7" value="" style="rounded=1;whiteSpace=wrap;html=1;labelBackgroundColor=default;labelBorderColor=#F0F0F0;fillStyle=solid;fontColor=none;fillColor=#030617;gradientColor=none;strokeColor=none;" vertex="1" parent="1">
                    <mxGeometry x="70" y="90" width="690" height="100" as="geometry"/>
                </mxCell>
                <mxCell id="8" value="" style="shape=image;verticalLabelPosition=bottom;labelBackgroundColor=default;verticalAlign=top;aspect=fixed;imageAspect=0;image=data:image/svg+xml,PHN2ZyB4bWxucz0iaHR0cDovL3d3dy53My5vcmcvMjAwMC9zdmciIHZpZXdCb3g9IjAgMCAxMDkuMjYgMTA5LjI2Ij48ZGVmcz48c3R5bGU+LmNscy0xe2ZpbGw6IzVhNTU2NDt9LmNscy0ye2ZpbGw6I2YwOTI0Mjt9LmNscy0ze2ZpbGw6IzI4MjEzODt9PC9zdHlsZT48L2RlZnM+PHRpdGxlPndyYXBwZWQtYml0Y29pbi13YnRjPC90aXRsZT48ZyBkYXRhLW5hbWU9IkxheWVyIDIiIGlkPSJMYXllcl8yIj48ZyBkYXRhLW5hbWU9IkxheWVyIDEiIGlkPSJMYXllcl8xLTIiPjxnIGlkPSJQYWdlLTEiPjxnIGRhdGEtbmFtZT0id2J0YyBjb2xvdXIiIGlkPSJ3YnRjX2NvbG91ciI+PHBhdGggZD0iTTg5LjA5LDIyLjkzbC0zLDNhNDIuNDcsNDIuNDcsMCwwLDEsMCw1Ny4zMmwzLDNhNDYuNzYsNDYuNzYsMCwwLDAsMC02My4zOVoiIGNsYXNzPSJjbHMtMSIgaWQ9IlNoYXBlIi8+PHBhdGggZD0iTTI2LDIzLjE5YTQyLjQ3LDQyLjQ3LDAsMCwxLDU3LjMyLDBsMy0zYTQ2Ljc2LDQ2Ljc2LDAsMCwwLTYzLjM5LDBaIiBjbGFzcz0iY2xzLTEiIGRhdGEtbmFtZT0iU2hhcGUiIGlkPSJTaGFwZS0yIi8+PHBhdGggZD0iTTIzLjE5LDgzLjI4YTQyLjQ3LDQyLjQ3LDAsMCwxLDAtNTcuMjlsLTMtM2E0Ni43Niw0Ni43NiwwLDAsMCwwLDYzLjM5WiIgY2xhc3M9ImNscy0xIiBkYXRhLW5hbWU9IlNoYXBlIiBpZD0iU2hhcGUtMyIvPjxwYXRoIGQ9Ik04My4yOCw4Ni4wNWE0Mi40Nyw0Mi40NywwLDAsMS01Ny4zMiwwbC0zLDNhNDYuNzYsNDYuNzYsMCwwLDAsNjMuMzksMFoiIGNsYXNzPSJjbHMtMSIgZGF0YS1uYW1lPSJTaGFwZSIgaWQ9IlNoYXBlLTQiLz48cGF0aCBkPSJNNzMuNTcsNDQuNjJjLS42LTYuMjYtNi04LjM2LTEyLjgzLTlWMjdINTUuNDZ2OC40NmMtMS4zOSwwLTIuODEsMC00LjIyLDBWMjdINDZ2OC42OEgzNS4yOXY1LjY1czMuOS0uMDcsMy44NCwwYTIuNzMsMi43MywwLDAsMSwzLDIuMzJWNjcuNDFhMS44NSwxLjg1LDAsMCwxLS42NCwxLjI5LDEuODMsMS44MywwLDAsMS0xLjM2LjQ2Yy4wNy4wNi0zLjg0LDAtMy44NCwwbC0xLDYuMzFINDUuOXY4LjgyaDUuMjhWNzUuNkg1NS40djguNjVoNS4yOVY3NS41M2M4LjkyLS41NCwxNS4xNC0yLjc0LDE1LjkyLTExLjA5LjYzLTYuNzItMi41My05LjcyLTcuNTgtMTAuOTNDNzIuMSw1Miw3NCw0OS4yLDczLjU3LDQ0LjYyWk02Ni4xNyw2My40YzAsNi41Ni0xMS4yNCw1LjgxLTE0LjgyLDUuODFWNTcuNTdDNTQuOTMsNTcuNTgsNjYuMTcsNTYuNTUsNjYuMTcsNjMuNFpNNjMuNzIsNDdjMCw2LTkuMzgsNS4yNy0xMi4zNiw1LjI3VjQxLjY5QzU0LjM0LDQxLjY5LDYzLjcyLDQwLjc1LDYzLjcyLDQ3WiIgY2xhc3M9ImNscy0yIiBkYXRhLW5hbWU9IlNoYXBlIiBpZD0iU2hhcGUtNSIvPjxwYXRoIGQ9Ik01NC42MiwxMDkuMjZhNTQuNjMsNTQuNjMsMCwxLDEsNTQuNjQtNTQuNjRBNTQuNjMsNTQuNjMsMCwwLDEsNTQuNjIsMTA5LjI2Wm0wLTEwNUE1MC4zNCw1MC4zNCwwLDEsMCwxMDUsNTQuNjIsNTAuMzQsNTAuMzQsMCwwLDAsNTQuNjIsNC4yNloiIGNsYXNzPSJjbHMtMyIgZGF0YS1uYW1lPSJTaGFwZSIgaWQ9IlNoYXBlLTYiLz48L2c+PC9nPjwvZz48L2c+PC9zdmc+;" vertex="1" parent="1">
                    <mxGeometry x="86" y="108" width="64" height="64" as="geometry"/>
                </mxCell>
                <mxCell id="9" value="WBTC" style="text;html=1;strokeColor=none;fillColor=none;align=left;verticalAlign=middle;whiteSpace=wrap;rounded=0;labelBackgroundColor=none;labelBorderColor=none;fillStyle=solid;fontColor=#95a3b8;fontSize=20;fontStyle=1" vertex="1" parent="1">
                    <mxGeometry x="160" y="102" width="60" height="30" as="geometry"/>
                </mxCell>
                <mxCell id="10" value="15 Positions" style="text;html=1;strokeColor=none;fillColor=none;align=left;verticalAlign=middle;whiteSpace=wrap;rounded=0;labelBackgroundColor=none;labelBorderColor=none;fillStyle=solid;fontColor=#677180;fontSize=16;" vertex="1" parent="1">
                    <mxGeometry x="160" y="130" width="100" height="20" as="geometry"/>
                </mxCell>
                <mxCell id="11" value="&lt;span style=&quot;font-family: Helvetica, ui-sans-serif; background-color: rgb(2, 6, 23); font-size: 16px;&quot;&gt;$6,820,072&lt;/span&gt;" style="text;html=1;strokeColor=none;fillColor=none;align=left;verticalAlign=middle;whiteSpace=wrap;rounded=0;labelBackgroundColor=none;labelBorderColor=none;fillStyle=solid;fontColor=#677180;fontSize=16;" vertex="1" parent="1">
                    <mxGeometry x="160" y="152" width="80" height="20" as="geometry"/>
                </mxCell>
                <mxCell id="14" value="158.46%" style="rounded=1;whiteSpace=wrap;html=1;labelBackgroundColor=none;labelBorderColor=none;fillStyle=solid;fontSize=15;fontColor=#111827;fillColor=#0f9f6e;gradientColor=none;strokeColor=none;fontStyle=1;arcSize=50;align=center;spacingLeft=0;" vertex="1" parent="1">
                    <mxGeometry x="270" y="117" width="110" height="20" as="geometry"/>
                </mxCell>
                <mxCell id="16" value="40,200.00 F" style="rounded=1;whiteSpace=wrap;html=1;labelBackgroundColor=none;labelBorderColor=none;fillStyle=solid;fontSize=15;fontColor=#111827;fillColor=#0f9f6e;gradientColor=none;strokeColor=none;fontStyle=1;arcSize=50;align=center;spacingLeft=0;" vertex="1" parent="1">
                    <mxGeometry x="270" y="145" width="110" height="20" as="geometry"/>
                </mxCell>
                <mxCell id="21" value="" style="endArrow=none;dashed=1;html=1;fontSize=12;fontColor=#111827;strokeColor=#3E444D;" edge="1" parent="1">
                    <mxGeometry width="50" height="50" relative="1" as="geometry">
                        <mxPoint x="400" y="100" as="sourcePoint"/>
                        <mxPoint x="400" y="180" as="targetPoint"/>
                    </mxGeometry>
                </mxCell>
                <mxCell id="23" value="" style="shape=image;verticalLabelPosition=bottom;labelBackgroundColor=default;verticalAlign=top;aspect=fixed;imageAspect=0;image=data:image/png,iVBORw0KGgoAAAANSUhEUgAAAOwAAADqCAYAAAChiqkJAAAJ9WlDQ1BJQ0MgUHJvZmlsZQAASImFlgdUVNcWhs+90xttYOgw9Ca9DSC9N+lVVIahN4eRJqIiIioQUUREQBE0VAWjUiSIiCioBAEFLGhAgoASgwVRUckdSKLxvfXenrXX/taec/7Z58xd6/4AkPyZbHYszAdAXHwix9Peiu4fEEjHzQA04AdEYACkmawtbEt3dxeAxN/13/FuBEDceledq/Wf3//P4A8N28ICAHJHmMFicxIR3oewd0oim8tjCAtykKEQnudyxArDaC6HrLLIyhpvT2uE1wCAJzOZnAgAiAykT09mRSA6RH+EteJDo+IR5uqbhccmpSLcy+3HxW0ORfg9wsrIejYAJDp3npBvNCP+pR/yjz6TGfEPx8Umsf46F/dGyGHxPl5IFUNSAoQDDRALkkAqoAM24IDNSCcK6YQhd//f9zFW9lkjK9lgK7IjCkSASJCI7Lf7RstrRSkRpAAmsiYM6bggH2vu/7gq+Ya2ogrRbn3tZb4FwDR0eXm5/WvPRR6Ai3uQszz72lPqAIBHGIDeXFYSJ3m1x716gEGeDl4gCESBFJADykAd6CBPiwmwALbACbgBbxAANgIWMm8cMlUKSAe7QDbIBQfBEVACysEpUAPOgvOgBbSDq+AGuA0GwDB4BMbBFHgB5sE7sARBEA6iQFRIFJKGFCA1SAdiQGaQLeQCeUIBUDAUAcVDSVA6tBvKhQqgEqgCqoV+gi5BV6Gb0CD0AJqAZqHX0EcYBZNhQVgSVoQ1YQZsCTvD3vAGOAJOgNPgLPgAXAxXwmfgZvgqfBsehsfhF/ACCqBIKBpKBqWOYqCsUW6oQFQ4ioPagcpBFaEqUQ2oNlQP6i5qHDWH+oDGoqloOlodbYJ2QPugWegE9A50HroEXYNuRnej76In0PPoLxgKRgKjhjHGOGL8MRGYFEw2pghThWnCXMcMY6Yw77BYLA2rhDXEOmADsNHYbdg87HFsI7YTO4idxC7gcDhRnBrOFOeGY+IScdm4Y7gzuCu4IdwU7j2ehJfG6+Dt8IH4eHwmvghfh+/AD+Gn8UsEPoICwZjgRgglbCXkE04T2gh3CFOEJSI/UYloSvQmRhN3EYuJDcTrxDHiGxKJJEsyInmQokgZpGLSOVIvaYL0gSxAViVbk4PISeQD5GpyJ/kB+Q2FQlGkWFACKYmUA5RayjXKE8p7HiqPBo8jTyjPTp5SnmaeIZ6XvAReBV5L3o28abxFvBd47/DO8RH4FPms+Zh8O/hK+S7xjfIt8FP5tfnd+OP48/jr+G/yzwjgBBQFbAVCBbIETglcE5ikoqhyVGsqi7qbepp6nToliBVUEnQUjBbMFTwr2C84LyQgpCfkK5QqVCp0WWichqIp0hxpsbR82nnaCO2jsKSwpXCY8H7hBuEh4UURcRELkTCRHJFGkWGRj6J0UVvRGNFDoi2ij8XQYqpiHmIpYifErovNiQuKm4izxHPEz4s/lIAlVCU8JbZJnJLok1iQlJK0l2RLHpO8JjknRZOykIqWKpTqkJqVpkqbSUdJF0pfkX5OF6Jb0mPpxfRu+ryMhIyDTJJMhUy/zJKskqyPbKZso+xjOaIcQy5crlCuS25eXlreVT5dvl7+oQJBgaEQqXBUoUdhUVFJ0U9xr2KL4oySiJKjUppSvdKYMkXZXDlBuVL5ngpWhaESo3JcZUAVVtVXjVQtVb2jBqsZqEWpHVcbXINZY7Qmfk3lmlF1srqlerJ6vfqEBk3DRSNTo0Xjpaa8ZqDmIc0ezS9a+lqxWqe1HmkLaDtpZ2q3ab/WUdVh6ZTq3NOl6Nrp7tRt1X2lp6YXpndC774+Vd9Vf69+l/5nA0MDjkGDwayhvGGwYZnhKEOQ4c7IY/QaYYysjHYatRt9MDYwTjQ+b/yHibpJjEmdycxapbVha0+vnTSVNWWaVpiOm9HNgs1Omo2by5gzzSvNn1rIWYRaVFlMW6pYRluesXxppWXFsWqyWrQ2tt5u3WmDsrG3ybHptxWw9bEtsX1iJ2sXYVdvN2+vb7/NvtMB4+DscMhh1FHSkeVY6zjvZOi03anbmezs5Vzi/NRF1YXj0uYKuzq5HnYdW6ewLn5dixtwc3Q77PbYXck9wf1nD6yHu0epxzNPbc90zx4vqtcmrzqvd95W3vnej3yUfZJ8unx5fYN8a30X/Wz8CvzG/TX9t/vfDhALiApoDcQF+gZWBS6st11/ZP1UkH5QdtDIBqUNqRtubhTbGLvx8ibeTcxNF4IxwX7BdcGfmG7MSuZCiGNIWcg8y5p1lPUi1CK0MHQ2zDSsIGw63DS8IHwmwjTicMRspHlkUeRclHVUSdSraIfo8ujFGLeY6pjlWL/Yxjh8XHDcpXiB+Jj47s1Sm1M3D7LV2Nns8QTjhCMJ8xxnTtUWaMuGLa2JgsjLsy9JOWlP0kSyWXJp8vsU35QLqfyp8al9W1W37t86nWaX9uM29DbWtq50mfRd6RPbLbdX7IB2hOzo2im3M2vnVIZ9Rs0u4q6YXb9kamUWZL7d7be7LUsyKyNrco/9nvpsnmxO9uhek73l+9D7ovb179fdf2z/l5zQnFu5WrlFuZ/yWHm3ftD+ofiH5QPhB/rzDfJPHMQejD84csj8UE0Bf0FaweRh18PNhfTCnMK3RzYduVmkV1R+lHg06eh4sUtx6zH5YwePfSqJLBkutSptLJMo21+2eDz0+NAJixMN5ZLlueUfT0advF9hX9FcqVhZdAp7KvnUs9O+p3t+ZPxYWyVWlVv1uTq+erzGs6a71rC2tk6iLr8erk+qnz0TdGbgrM3Z1gb1hopGWmPuOXAu6dzzn4J/GjnvfL7rAuNCw0WFi2VN1KacZqh5a/N8S2TLeGtA6+Alp0tdbSZtTT9r/FzdLtNeelnocn4HsSOrY/lK2pWFTnbn3NWIq5Ndm7oeXfO/dq/bo7v/uvP13ht2N671WPZc6TXtbb9pfPPSLcatltsGt5v79PuaftH/panfoL/5juGd1gGjgbbBtYMdQ+ZDV+/a3L1xz/He7eF1w4MjPiP3R4NGx++H3p95EPvg1cPkh0uPMsYwYzmP+R4XPZF4Uvmryq+N4wbjlydsJvqeej19NMmafPHblt8+TWU9ozwrmpaerp3RmWmftZsdeL7++dQL9ouluezf+X8ve6n88uIfFn/0zfvPT73ivFp+nfdG9E31W723XQvuC0/exb1bWsx5L/q+5gPjQ89Hv4/TSymfcJ+KP6t8bvvi/GVsOW55mc3kMFesAApJODwcgNfVAFACAKAOIP5h/arn+svPQN84m78Z3L/zlet+W/VlK2EAQANSPJG07gTgHJKKGYi2BQBci+htAWBd3X/yr/i/v/cdr/o9bmAR53vShksPDm/IAN/Fqhf85pzfV8CdQg98X/8EzSq1u9ZbCMQAAACKZVhJZk1NACoAAAAIAAQBGgAFAAAAAQAAAD4BGwAFAAAAAQAAAEYBKAADAAAAAQACAACHaQAEAAAAAQAAAE4AAAAAAAAAkAAAAAEAAACQAAAAAQADkoYABwAAABIAAAB4oAIABAAAAAEAAADsoAMABAAAAAEAAADqAAAAAEFTQ0lJAAAAU2NyZWVuc2hvdBcIKnIAAAAJcEhZcwAAFiUAABYlAUlSJPAAAAHWaVRYdFhNTDpjb20uYWRvYmUueG1wAAAAAAA8eDp4bXBtZXRhIHhtbG5zOng9ImFkb2JlOm5zOm1ldGEvIiB4OnhtcHRrPSJYTVAgQ29yZSA2LjAuMCI+CiAgIDxyZGY6UkRGIHhtbG5zOnJkZj0iaHR0cDovL3d3dy53My5vcmcvMTk5OS8wMi8yMi1yZGYtc3ludGF4LW5zIyI+CiAgICAgIDxyZGY6RGVzY3JpcHRpb24gcmRmOmFib3V0PSIiCiAgICAgICAgICAgIHhtbG5zOmV4aWY9Imh0dHA6Ly9ucy5hZG9iZS5jb20vZXhpZi8xLjAvIj4KICAgICAgICAgPGV4aWY6UGl4ZWxZRGltZW5zaW9uPjIzNDwvZXhpZjpQaXhlbFlEaW1lbnNpb24+CiAgICAgICAgIDxleGlmOlBpeGVsWERpbWVuc2lvbj4yMzY8L2V4aWY6UGl4ZWxYRGltZW5zaW9uPgogICAgICAgICA8ZXhpZjpVc2VyQ29tbWVudD5TY3JlZW5zaG90PC9leGlmOlVzZXJDb21tZW50PgogICAgICA8L3JkZjpEZXNjcmlwdGlvbj4KICAgPC9yZGY6UkRGPgo8L3g6eG1wbWV0YT4KBABbogAAABxpRE9UAAAAAgAAAAAAAAB1AAAAKAAAAHUAAAB1AAAWeRVQAIAAABZFSURBVHgB7F0JcBTXmf56Tl2D7lsgCZCEDgvEJe4YfGGwMeD4wM5m4+xuKq5ssuXaxNnanJtks9l1ebM+K6lUvOX1JvEF8X3FBAHmFAaEsCUZJEAIIXQgISTNSHPt/4/QRhY6ZlrdM90z75WmNN39jr+/97551///TzJa0rwQQSAgENAFApIgrC7qSQgpEPAhIAgrGoJAQEcICMLqqLKEqAIBQVjRBgQCOkJAEFZHlSVEFQgIwoo2IBDQEQKCsDqqLCGqQEAQVrQBgYCOEBCE1VFlCVEFAoKwog0IBHSEgCCsjipLiCoQEIQVbUAgoCMEBGF1VFlCVIGAIKxoAwIBHSEgCKujyhKiCgQEYUUbEAjoCAFBWB1VlhBVICAIK9qAQEBHCAjC6qiyhKgCAUFY0QYEAjpCQBBWR5UlRBUICMKKNiAQ0BECgrA6qiz/RZUgSQaKLtEfffj/SPCyV1v+eOD1ekbuiv86QUAQVicVNSKmJBlhMFphNttgjUpGVEwmoqJzYKWPJSoHZksWjKYkSIYY+ljpYyHOmii5NExQrxMezxC8Hgd9+uFytsM1eAGDjhYM2lvgGGiB3X4JQ4Pd9KzfF3eY4CMSiP+hREAQNpToT1G2gchmsSYh1pYHW3w54hKWwhpTCpM5mYhoniL19B+73QNwD7XBfvUIrvZU4+qVOgz0XyAiXyXyu6dfgMghYAQEYQOGTL0ERmMMYuKykZC0GAkptyDKtoB6ywQqcNSQVr3i/cqZh9GuoQvo7/kIPZ270NN9knrnTuqtnX6lF5Gmh4Ag7PTwm1Zqnmdao9KQmLIISembEDOjkggaP608Q5HYOdiCq5c/QGfb++jtqfP1wKGQIxLKFIQNci3zHDQ6Jgsp6WuRnLUNZmsezUmjgiyFesW5nFfg6KtGx4WXcLnzCJxDPeoVFoE5C8IGqdKtUalITv8C0mZ+leal+WFF0okgdDl7MdC7D5fOv4CeyzVwuwYmiiru+4mAIKyfQMmJxotG8YllyMj9Ci0YrdHlcFfOe4+Xxum4gO72l3Hx/A7YaeFKrDyPh9LU9wRhp8Yo4BhmSzxSMm5CZu7DMEfl0raK+iu6AQsZogQe2k4auHIQrWee9fW6vMUkgv8ICML6j9WUMaOi05GesxWp2V+GyZIxZfxIj+Dor8PFM/+Fzkt74XbbIx0Ov95fENYvmCaPxETNnLUNSZkPkOJC6uSRxdPrEHD0n0bbuV+i4+IuQdzr0Pn8DUHYz+MR0JXFmkxEvQ8p2X9NRE0LKK2IfD0Cjv7P0Nr0GPW4e65pWF0fJ9LvCMLKaAFGUwzSsjYiK/8faFsmW0YOIslkCNj7TuBc/Y9pjnucorHeswgjCAjCjiDhz39SpE9MrkR+8Y9pMangmoK9PwlFnEAR8Hpd6O18C2fqH4PD3hpo8rCNLwjrZ9VGx2Qjt/AR2JJupe0Zm5+pRLTpIjA02IHO80/hwrlXxfyWwBSEnaJFGUjJPjVrA3LmfEcMf6fASs3H9v5aNJ38rs8AQc1ytJ63IOwkNRQTl4vZxT8kHd/lpJkUPUlM8SgYCLDmVNeFX6G56fmI1ZoShB2npbFSfnL6Lcgt+j71qjnjxBC3QomAva8Gp048goG+M6EUIyRlC8KOgd1iTfTNVRNSN4u56hhstHTpHOrAxaafk6rjmxFlmysIO6oVxsXPQ2H5f8ISXTzqrviqZQR6Lv0Bpz/9t4gx6ROEvdYaU3gIPO9HYmFJy+ycQDYHLUg1HPt72AeaJ4gRPrcjnrDsHykn7yGkzfoauV5JDJ+ajbA3GSJ/VGfqvo3uzkNh/eYRTViLJQGzS76PGckbxCpwGDRzXkW+2PRT2rPdTm8TnhpSEUtY9vowr+IpWGMrqHK14zMpDHgT0ldgn1OdLU/hTMMzpI8cfn6mIpKwsbY5KFrwlFhcCim11C28mxejTv407LSjIo6wcTOKUTj/CSJrgbotRuQecgSudr2DhppH4XL1h1wWpQSIKMLaEm6gbZtfkuL+HKXwE/loHIH+nirUHftW2Gz7RAxhmawF5dSzRuVrvIkJ8ZRGoP/KXtQd/UZYkDYiCBsXX0I965M0DBY9q9Jk0Et+fd27qKf9Jukg63t4HPaEjbUV0ALTM2LOqhdmqSgnz2nrj/8jLUQ5VCxF3azDmrDRsTNRXPFrWGKEqqG6zUg/ubMq42e1P6QtH5d+hB4ladgSlv0tlS7+zbV91lFvLL5GPALtzU+gqf4JwkF/yhVhSVijKRpF5f+BGSkbqVKEUkTEM3QMAKxccb7hO2ht3jHmifYvw5CwEnILvon0WV8X6obab38hk5DVGBtr/4Z0j4+ETAY5BYcdYVMzN5LVzU9IkT9JDh4iTQQhMESHWNcd2UZWPi26eeuwIqwtYT5pMT0tvETopvmFXlB7Xy0+ObxNN9pQYUNYK3nfL130HK0Il4S+FQgJdIVAd9vv0FD7A1qD0v4iVFgQlj0bFpb/AglpW3XVUISw2kHg7KffQFvLO9oRaAJJwoKw6dlbMKvoX4QPpgkqWdyeGgH2f1x35G46CvP81JFDGEP3hI2dUYR5C35DCv0zQwijKDocELBfPY7aw/fD4x7U7OvomrB8xk3ZkucQbavULMBCMH0hcLHpZzh3+reaFVrXhM3MfRAz535P7LdqtnnpTzDen637eCv6exs1KbxuCctK/fMWPie2cDTZrPQtlL3/BGoP3KPJIy91SVheFS5Z9AziEm/Rd8sQ0msWgfMNj5Izt1c0J58uCcvHaMwufVysCmuuOYWPQHyywMmDGzHo6NDUS+mOsGyFU7b0f8m+dZ6mgBTChB8CPZdeQn3NP2nqxXRH2Jlzvoas2Y/SYcpGTQEphAk/BPhQ6brqTejtqdPMy+mKsNGxuShZ/AItNEXWnqvRABjp94k/BrIWNND1VIG17EZr2o1cjyjfjVxzPiPf+ZkvDacd+c4RIjgMXP0YtQfvI1zcmkBBV4SdW/oDpGR/VRPAqSkEE5JJajYBUVESZsQCM+IkxNL/GDqm1mKWfMQdVwYiNJPOTe3L5fLC42MeXXsAJ/nV9tB/vucihwsuisPXHNdJ1/yd03Bc/vBzMh31ffdQopG0IwRnVnNeHJefhWs4dfxBdLXv18Tr6YawsbZC2sZ5nnrXDE0Ap4YQTNRoq4TEeCAlUUJqsoS0VAkpSRIS6N4Mm4S4WAlWyyS9LNvrXyPk0DWCsqxMPqeTSMckpedM3mECe31k5e/DxCXCUhyO7yM1EZnzGaK0zqHh70xuH6kpTn+/F20dXnT1eH1p1MAl1Hk6Bk7hxP4N9KNELx7ioBvCFpb/K5IyHggxXOoUb6Khro16z5RkA2ZlSZiTJ2F2ngFZGRLiZxBBicTDQ2L6T6SWiJT8mSyM9IK+IS5FJI76esvhb8M94v8/o4cj35nMIz0n95p8nwnsdl/reanNOrkXvkballYv9ux3ofqEB30Dk0mk72eNJx5CR1tVyF9CF4QdVpLguWt6yAFTUgAmahwRNSPVgOICCeXFBuTOMiAxQYKNelOrRZqSmErKE2hezO3mZg9ef9eJD/a40dMbaA76ie8YaKRedn3Ie1ldELag7EdIzvqKfmp3Ckm5d4yiYW1mmoSyeQbMLzViTr5EPaoBMTFTdJ1T5B3sxy0Xhgn77q7wJizjerrmS+i8tC/YEH+uPM0TNjpmFkqXvAiTNfNzguv1guep8dR7FhJBl1QYUXGDEbNmSoimxSU9huYWD96gHva9qvAnrKP/E9Ts30TThNCtsGmesLPmfp32Xb+rx7Z8ncy86ptGC0kLygxYXWlEabHRN0f1Z5vmusw0ciOSCMuQf3p4Q0j3ZTVNWLMlETdUvkxaTXM10jzli2ExA7MyJSxfbMSq5UbMzjX4tmymWjySX2JwUkYaYa90vOk7XCs46F5fiqYJm5q5HvllT9KeI7V2HQcmaz4Ne28koq5cZkROlgEWWlAKhxBphPV4HKj5aBXpGHeFpPo0S1jJYEJ55QtknL4sJMAoVSiTNS9Hwk2rjFizwoRMWlgy0dA4XEKkEZbrrbXxJ2hu/O+QVKFmCcuuX0oW/QFGc2JIgFGiUJ6z8r7qTauNWLva5FsF5v3UcAqRSNghRyuOf/SFkGzxaJaw+UXfQnruI7pt27yQlJ0uYR31rLfcaMLMbINP+UG3LzSB4JFIWIai/sgm9FyunQAV9W5rkrAmUxxuWP4qrNFF6r25yjknxktYvdSAO28zYe4co08vWOUiQ5J9pBL2cttL+OxE8E3vNEnY+KRFKKx4gXok0nTXYbDSvLWi1IAtG02omG8khf3wWGAaryoilbAuVy+O7a4klU3HeLCodk+ThJ1b+s9klfN3qr20mhnzUDgvW8IdN5uwbo0JKSnqkJV1fFnv16cDfO1/IFtEnI7js7zT2QeOVMJyGzp17D50dRxWszldl7fmCGsy2VC+fLtuT0yPJzO4dSuN2LTehDzaazVTb6tkYCuawUEvWckAdocXQ0NkJUPWND7iEgH9/XlghX5eAEsmgwPWXZYrZyQTtvvSdjTUfFvJ6p0yL80R1pZQjnmLXtTlcJhXhYtmG/DFO01YsZSGwgrpBTMZB+xedHd70dHlRTuZs3V0etB7dfj+EJm9+exR/WUrNQu2tommGcfShaQeScN2Nt0LpIceaVmRTFgeFh+tWkLYUwUEKWiOsHkFDyMj/9Egvb6yxSRTT3XrjdS70kJTDq0KyyHAWInsRNTOy140nfHgZL0HjWc9vmu7nWxT2cSNesoRM7ixaSe75h+BuBjQopgRt99sRioN3eXIG8mEZXzrqm/Hle76yaBW9JmmCMvuS8uXvYiouIWKvmQwMmNliOI5Bty32YTlS4w+G9bplMsk7OvzouG0G4ePelB3yoMLbdTL9tIQmIiqRIijEcDWDfQDc7uJDOUNE3uxmKSwSCds27nHcbbh6UkQUvaRpggbFZ2DsmVv0GHM+lOWSKJtnBuXG7B5o9lnfD6damKydnZ5cOyEGx8d8qCWetbLV4ZdtEwn37Fp2e3M1tuNuIPm24KwY9Hx75qVKI7uWUWRacgShKApwqakr8Pc+b8NwmsrX0QheYngueuq5SbffFBuCTxU7aR56oHDLvxptxsNTV4M0OKSGkEQVhlUj1bNp8W/4Fjva4qwBbSdk6zD7RxebKqsMODBu80+k7npbJNcoSHvgcNuvP0hudg87YFDxYPUBGGVIeypY/fS9k61MplNkYtmCGswWDB/+SuwxpZPIbL2HqfQYtPNpC981wZSQcyhjU2ZgVd7j9a48Pp7bhw7yT6S1OlZR8QThB1BYnr/25ufRlP949PLxM/UmiGsJSqDCPs2Kfsn+Sm6NqJxbzqX/DBtotXWNStNSCJvh3ICr/aeJ+8Nb77vws59bnTRFo5vb1VOZn6mEYT1E6gpog3Zz+Lo3rVTxFLmsWYIy+qIxYtfobeS1+CVgSPwXNh8jtUQef5aUW70GaUHngtwlVaEd+9z4bV33Wg85/G5HpWTTyBpBGEDQWviuOwy5sifi2mLTf39WM0QNjtvG2YW/nxiVDT6xEZ7mWvI3cvdm8yYS0oTcuav3LuebXZj+xsuVB0ghQjy9RuMIAirHMq1+1ejv69FuQwnyEkzhC1e8O+IT7t3AjG1ezuTHH2vX8vKB2Tvmilv/sr7rQerXXj1LTfqGz1Bc8gtCKtcuzpz8m9xqXWnchlOkJMmCMsKE/NJf9gae8MEYmr3Nns/3Ez7mLydI3f+erGN5q7vuXyeB9tpSydYQRBWOaQ7zj+LxrrHlMtwgpw0QVizJQnzV7wLkyVtAjG1e3sheUC8h+evpI/Lx2jICQ2n3Pj9dhf2f+wmhX45OchLIwgrD7fxUvX3HqVDs+4e75Gi9zRB2OjYfDJYf4/mf+RdW2dh5WID7t9sRnERLzgFLjzPX48ed+P5l504QRpNPiX+wLORlUIQVhZs4yZyuwdQvbOMnqk7QtIEYeOTltAK8cvjAqH1m2xK9+BWE/LzjOQJMXBp2Qpn30HqYXc4ceqsupU9VjpB2LGITO+6emeR6ivFmiBsRs6dyCt5cnpohSj1erLO+dIXzT6FCTkO1rpJR7hqrwvb33bhbIsgbIiqUZFij+9dDIddXfenmiBsfuHDSM/Tp0ndHTcb8eV7zcgg96V82HKggfWGd+524jXSbjp/URA2UPy0FL+uej2Z2jWoKpImCFu84Be0pXOfqi+qVuZ33kqEvYcImy7P/pUN0ndWOfH6+4KwatVRsPI9c/Ih2tqpUrU4TRC2YsXvYI1boeqLqpX5hnVG/BURNpu8+ctRmrhMKoi7aEi84x0Xzl0QPaxa9RSMfFtPfw/NTb9XtaiQE1aiPdiFK3fAHM0rbPoLrPT/4FazbP9NfaTVtJcORH7xdRepJArC6q8F/EXizpZncfpTdfdiQ05YozEGFaveouMk8//y5jr6xr6Ht20xo7CAtnWsgQs+RA7Uqj924X9eceFT8iqhtsL/aAnFKvFoNKb//UrHa3RQlrrO70NOWJM5HgtWvk9KE/o8XX3JfAPu3UTnAJUZESvD6RoT9JM6N14gwlbXuMEEDlYQhFUW6b4rB3Dy0APKZjomt5AT1mxJwYJVH8Joih8jmj4uSwokbCGfSMuXmpBAbmLkBPaL9Me3nNj50bArGDl5yEkjCCsHtYnTOAYa6cydmyeOoMCTkBPWYk0nwu6CQade/mfSma8bbjLi1rUmpKfJU/7vob3YPTSP/eM7ZFrXHDxtJ0FYBRg0KgvXUBeOVC0edUf5ryEnrDUqCwtW7yYXm+RnRYchwQasXWHE1juGF57kuAp1khfEz0if+KXXXDhwNHj6xDbSfd5Mhvd30gghg35s5KxyR7rXxNFN1usZxKEP542+pfj30BOWPCVWrN5DLyZvOKk4IgFmyAbsS3kee5cJZSUmWeqJXGRPjxfv7XThDfI40XJJeQ+J472Wjebcd60nwpK1USbtIwvCjoeS//eo1nDogzn+J5ARUwOEnXmNsDKk10ASI42Ci8gf8RZyF7qykjwmzpD3w8NGAPXUy+54i3rZj8mInWxk1QyslZWTMezp8cZVJt9xHXJGB0r3sKN/NIJpCKEU1gc/yFcqq3Hz0Qhhd5Nw8hr6uG8VxJvcyDPIa/5tZMS+4ZbhQ5vlFt9Pe7L7D7nw5p/cPsfhdhU9JqaQ76k1lQaS2Yw5+fLPAFKCsExSHqnE0tEh0VGS74R6Xj1nU0M2jhgkzyt8plAwt7zk1aEHB8O+h43KpjlslW7nsFyx0WRWt2KREfdvMaGI9mNH9xKBVDw3yPZ2D/YeHPZJfJoUKbixKh2YrMsWGnDbOhPmFRp98sstYzqE5dEJn6ObRQdfZ9InnX744si5OZOXe1cmaxdNFdo7gFY69aCt00tuX9V3TicXCy+dsXPoQ3XPNA55D2uxZtAq8Z91u0rMlcu9bMnc4WM6ltExHdM5D5aHxq0XPdhHPW3Vfg9Ok0M2pXwTs//ktGQJlUTWdTQMLiSZp3tgl1zC2mKBWaTOWVokobzE6Duh3kYLeCaT5PvB4x8vxsJBTtS76GyhBvLRXPOJB581edBO1/xMa8HlvIwjuxapKtb/AQAA///DRTN1AAAV7UlEQVTtXQl0XNV5/t4s2vfVkiVLsnZbsiVjRcYsBmLAhmKHrSxtySmlJz3hJKUJDaWnJDknDQcICSFLS32ak1ASAjQJhBRcSAy4dmww3jdJtiXbkiVZsmxrHY00W/9/1EkVMbZmRu/Ne2/033OkmXnvvnv//7v3e//d/nsVa1yeDzoGe1wOGq7+Hay2dB2lmHvW+TkKbl5jxS032VBUaJlTgm43cLbfi117PNj2kQftp30YHvHB7YksWZsVSEkCigosaF5hwaomK8oWWZGQEFl605/qPOPFm5td+O8PPBgcnn4n+HeFLqelAI11FlyzyoqqCgvycixISlKg8M0gwUV4DA360N3rxYe7Pdi+y4PuPmDSpWvV/YSkTkcH9m//9Ceuq3lB0ZuwNns6EfYd2Oz5auoV9bTi44DlSyy45zN2rFhuhd02NxG8XuD8BR9ajnmwe78Hh1q86Dvnw/gE/MT1zVJXLVT5magJ8SBCKKglYjTWW7GkxoL8PAvs9rnJF3g6XMKmpShoblBw43U21C2xIpV+X4qogTwCnx56YZ3p8WLr7914f7sXp7p9cLlnASLwcBQ+x4Y+wqGP7tU0J90Ja7UmofHqt2CLL9VU0WgkXpinYMPNVtx0vR052QosczO0fpGdTh+6yIodPebFiQ4vOnt8fuIOj/rgZPKS9fFSnWXjxPnZ6EWRSCRNS1XAVr+4UEF5qQXVlRYUL7y8JYsEo3AIm5SgYHmtgjv+xIZlS62XtaqXkoXp2U2kfWeLG+9u9aCXXmL8cjNCGDr3a7Tse0RTUXQnrMViR+NVr8OeuFRTRaOReCI1MVdQU+/2W2xoqLep0uRkudmyOBw+DJDFZYKwlTk3AGqC+jDmgN/KsEWNi1OQTE3fjDQFufTCWEhkZZJmZypIpCYnW1y1QziErVik4DOEzXVX25BOMoZqWWfKzAQ93u7BL950Y9suL2HggxHs7ED3Czhx5OmZ4qr6W3fCsjaNq3+O+JRVqiqmR2JcAXOzFKy7nvqya20opD6jGlY2oAtX1HGyuOPjAFtetrD86XJNWdc4apbHxyv0x01hIim9QBLIqqkpQ0CWwGeohE0g2W5YbcF9d8ZhUbEF1jm+PCZI9/e3ufDKG26cPOPzv9QCMun12dP+BDrbf6pp9oYgbG3jM0jPvVtTRaOVuN2mYGmlgo3rrGheaUMaWRItA5M40J9lYkZqtSKVMVTClpC155bHTTcQJtRcVyMcO+HBa0TYDz70+F9eaqQ5lzROHn4QfT3vzyWJWZ81BGHLqh9GfsmjswprhghcFVOSFaxeacGGdTbUVFr9Fs8MskciY6iEXU2j039KA3L1NNDELQA1wsB5H7ZsdePF/3SD+/R6h9bdt2DwQoumYhiCsAuKN6K09ruaKhrtxAtyFay91oqbr7ehuGjuTcBoyx9qfqEQli3/rTdYcc/tdn+feq7N4YBsTiew94AbT//QhfMX9SfsgW1N1F2hwQUNgyEIm5HdjJorXtFQzegnzQM8ixdZsJ4q6pqrbMilEdtoN1ejoXUohLVZFdx5C1vYOOTRi0wtHDzUHWhp9eCJZyZxjqyt3uHjLTXUl6bOtYbBEIRNTC5H/ZVv0+AIjUzEUOCBFp7/XL/WilXUn83MUK+yGgWmUAjL/fq7b7XgbiIsT3epRViezjp23IPHn9SfsF7POHZt4ZkObV8chiCsPS4by1dvhi0u1yj1UDU5kmiktr7agpvJ0l7RMEVaLUdtVRM8xIRCISxb2LuIsGxh1WxpsIVtbfPgn57Wn7COkYM4uHNjiKhFHs0QhGXL2rD6V4hLMv9cbLCiSE6kkeMqBZ++xoqVjVayMrHTpw2FsBaaJN54I60Coz6smlNdPLVz4JAb3/ye/n3Yc2f+De1HnwpW/KpeMwRhWaMlK76NtJw7VFXOSImxpa0ss+BaWj/btMLqX2/M86ZmD6EQlnW8rnmKsNVVVsSptCxykNYX8zLFTS+7MUSLSPQMp458Dme739VcBMMQtqjsz1FU+Q3NFdYzA15vvKhAQRNZ2U8RaSsWW/xzkno0kbn/N0pTIby0MYlaADzVEknfMlTCVpZSP3aDDWtW25BM015qhJOnPPjVf7nxDi1RdNCIsZ7h8M41GB3p1FwEwxA2PasJtStfJYXVKUzNkYswA3YKyKLBp9oKBVeupMX41Vbk0RrkRI1XJE0Xl5uSPWe9aD/p9TsBVJVb/X1LXoccbgiVsKlE0nXXWXDXRjsK8ue+AoxXd23f6cYrr7vRRnpE6skUrr7B4tNqZuzeskTzEWLO2zCEjU8oxLLVb5GbXUYwTGLuWsDdbSkNSDXWW1BJ1pZHkXlpoVrzlDNB40o+OubDydNe7CAXteNU0ZdWWbB2jc2/XFBLwrL1rqO87qSF/+zex1Y20lczN37Zur5O1vWDHV4MUkshsNprps7R+O2a6MaerVdHIyvjENZiicfyK3+B+OS6qChuhEy4KZxBy/RKixVUl0+RdnEJub/lK35PFivdVyOw88AI+dOe7vKi9biXXPU8OHp8ak3y2mvIWeFWJqzV7+kTbn6hWlhON41I2rSc8iPS1lBfll3/Igm8wund91x4e4sHZ86yu6G+/ddzXTTg1KL9gBNjZRgLy8JU1X0VWYV/yV/nTWDLw83kFPKmWUhELae+XhmRtmCBghxyJMggq8vNSba8ofZ12dpMTk71US/QwMy5gSmytrV7/VaVFxmw40Aipbnueovfg4YJG4llD4ewrGtWuoJraQCKrXoVLdtkB4VwQh859u8gp352rWs76SM99SUry35i//0Y6N8ZjhoRxzUUYXMX3IjyZZsiVsbsD/LoKY8m81pkdjovogGqQiJuPq0O4uZyMpE6zk5uckRw/gsQmAnKfTg3OXNzs5e9eQaHfLRrhc/vineavFn6iaRDI1PePjx/yYFfEtyv3Lh+ysJqTVjOk90AuQ/f3Di140Q5jZzn0I4Tszn88yhwH+nz8V5qBu8k53XSyTmhb1OY9eGwd2sDJieGpn5o/N9QhE1IWoT6VW+afrsYNcqMycvzt+zfmpQ4RWLerSEleWpUl5uTvGsE1X+/a9kEWRoHEXWM/oao+TsyOtVfHSV/We638jYrM4MehA3IkEmWtqJE8fff62pp4I1eSjzwZiOdmNRsNz0ks4u2geHtcY61+7D/sAdH2rzoIeLyi8kIwTVxlvqvq0mU6Fh6QxGWF1Asu/JVJCQ3GKEsDCUD92eZoHFkWe1kZdki+S0sV26ymDw9w9ulTNLnJFVm7rfONhCjJ2EZXJ7myqNmfyG1JIqoJcFO9+zYzvPTLD8753OTnlsKXbTTRk+fz//y4Skpo4T+zu+jo/U7URPHUIRlrcuqv0Cudl+KGgDzOSO9CcvYcwuBm+LciuBBKR495pdRwFl/mFoKvKMEv4SMRNRAvWndfRu51B0O/NT803CETctsRM2Kl2GxhjkaoTlUsZeBEQg7HVVuCnOrgQen2IhyyyHQ354ezyjf3e4R7NvaFJX514DOhiOszZ6GZatoXXFieUBG+dQIAaMRViM1NUt28Nxv0Lrvi5qlHyxhwxGWhayq/zqyCj4bTF65piICQti5gXniwJ9hoG/H3BIJ82lDEpYd2qsafiLN4jALM9zoQthwEfv/+G73KPb/TzMN9tHIWBSDIQk71Sz+JTWLK6IIxfzLSggbeZkP9r+B1v1/F3kCET5pSMKyLotrH0Ve8cMRqiWPhYKAEDYUlILHadt7Jy4O7A1+U8OrhiVsSvpS1K74Gax0lIcEbRAQwkaGKy+W2LftWpp6iv7qDcMSlhdR1Df/FImpTZGhKk/NioAQdlaIgkboPfk0Th9/Ieg9rS8alrCseP7CDShd8izNy9ESHwmqIyCEDR9Sr3cCB3+/Bs7xvvAfVuEJQxM2Lj4Hdc2vIS6hTAVVJYmZCAhhZyIy+++RC7/Dkd1/PXtEjWIYmrCsc1n1I7RU8W81Un9+JyuEDb/8W3dvpKWIB8N/UKUnDE/YpJQyLFn5c9oCNV8llSWZAAJC2AASoX1Ojp/Avu3ryKmCPBN0CoYnLONSvexJZC64TyeIYjdbIWx4Zdtx6EH0974f3kMqxzYFYVPSl6Cm8UWysjkqqz+/kxPChl7+E+OncGDHzfB6aCsPHYMpCMtOWDUNzyIjL3b3LdajDghhQ0f95OG/oaMk3wn9AY1imoSwtOOC38r+mKxsnkZQzL9khbChlfnEeAdZ1/W6W1eW1jSEZWGr6r9JXjz381cJKiAghA0NxPaDD+LcWX37rgFJTUXYpNQKWq74IuzxhQH55XMOCAhhZwdvwtFK1vU2WoYYZFOs2R9XPYapCMval1R9EQtoXlZRVNq0V3VIzZOgEPbyZeXzudG65y4MXThw+YhRvGs6wsYn5KOu6SXYEyujCFNsZiWEvXy5Dg38Bi17o7ujxOUlMlkfNqBMXuFtKKl5krZDTQlcks8IEBDCXho01+R5HNl1G5yO3ktH0uGO6SwsY2SlDdqWNv07ktKu0gGy2MlSCHvpsuw+8TV0dfzHpSPodMeUhGWsUslftqpxE+xxMgAVad0RwgZHzkkDTYd23k67Iep8hmUQ8UxLWNalaPFDKCz7suz9FKRgQ7kkhP0kSh7aurR1770YGTz6yZsGuGJqwtrsqTQA9WMkpFxhACjNJwITdj0dhrVhvR2LiiwRHYbVdcaLNze7sPkDDwaHzYfBTIn7Tj+Hk23fm3nZML9NTVhGMTWjHlXL/5XmZhcaBlSzCMKEveUGK+6g4x8LCyI7ZLmn14s33qajH98zP2GdY0dx6KO76Uyf6O6EGE59MT1hWdmCRfejqOJxGTUOp+QpbjIdPnX9VRbcepMNCwst/p32ZzuPh7PgXfl5l34+QY8J+9Zv3Xh/h8d/Oh7fN2PgUeHWPfdgbKTd0OLHBGEt1njUNnwXqdnrDA220YSz0Zk2uXQYFZ9Fm0gn5TETmYyzBo5E0fmALse4D710SBWfORvshLxZ0zJIhM7WR9HT+UuDSHNpMWKCsKxeYlIRaq/4Ee1lXHVpbeWOIBAEgeGBX6Nl35d1dUwPIlbQSzFDWNYuPftTqKh7TtYaBy1quRgMAedYC458fB9ck9E5kDmYDOFciynCsuL5RXejuPIf6WDgjHBwkLjzEIFJZw/a9j6AsVFj91unF03MEVZRrCir+QpyCh+Q+dnpJS3f/wgBnm/tOPwwzvdv+6PrRv8Rc4RlwG32FNqh4vtIyVxDv2h0RIIgMA0BHx0823Pi6+g6+dK0q+b4GpOEZegTEhfQINQmxCfVm6MkRMqoIXC+50c4ceRJGmSiE6NNFmKWsFwOyanlqG74Fxk5Nlml1FLcYXKZazvw91E9NV1NfWKasAxUakYdqpY9D3vCYjVxk7RMiIBjaBuO7vk8nek6akLpp0SOecKymumZK1BR/20ibemU1vJ/3iHgHN3tP2LDNTloat3nBWG5hNKzmoi036I52hJTF5gIHz4CztF9RNaHaK71QvgPG+yJeUNYxn2KtM8QaUsNVgwijlYITFnWz8UEWRmjeUVYVjg9s5Es7bPSp2UwYjw4hrbTksMvEFnN3QyeXkzzjrCsPO9WUbnsOzJ6PL0mxNj3kfNvoe3g43C7RmJKs3lJWC5BPhWvevnziE+uo1+yuCJWajXPrV7sfRHtLd+iqZvxWFHrD3rMW8IyAvGJeahY+s9ITr9GljH+oUqY9wsvN+zrfA5d7S/RoghjbPytNprzmrAMps2WjOLyz9Pa4/thFYcBtetX1NLjhfxdx56gIzXei1qeemQ07wnLoPMpArmFG8jL5yu0C2OBHuUgec4BAaejBccPPEK7RRybQyrmeFQIO62c0rNoBHnpU3SqgDjBT4PF0F95cOn44a9hcuK8oeVUSzgh7Awk2WmgrOYxpGStpV0E5WSBGfAY5qdrcgD9nc+j+9RrdFDVpGHk0loQIWwQhC0Wu7+JXFT+Jdm9Igg+el9yjh1B++HHMDJ0RG9Rop6/EPYykKekVaN86Tf8LnoWOh5Egr4I8Cjwxb6f4dSxF2h+1RxbuqiNmBB2FkSttkTaduYOFJY+TKe/y4DULHBpdnvCcRQdR79KRz/u0SwPMyQshA2xlNi3trT6MTqA60rZ/zhEzNSIxn3VCz0/8e8O4XbFwNECcwRFCBsGgIrFhuy8NVhU+Q/+tchyqHQY4IUZlRc+sP9q+9FvwmGiTdLCVDPs6ELYsCEDzdVm+JvJ+YseknnbCPCb7REeVOo8/hQuDnxIpxHE5oql2TC41H0h7KWQCeF6QtJCFJb8BbLy76D+bW4IT0iUyyEw4WjH2dM/QH/vu4Y+3+ZyOmh9TwirAsJJKaVE3AeQkXsbETdHhRTnVxITjg70n9mEvu7NNPor/dTLlb4Q9nLohHkvKbmEDua6F5l+i5sX5tPzL/qE4xgt1t9EFvW3QtQQi18IGyJQ4USLT8hHXuE65BZ9lhZeFNNaZTrmTYIfAa/XiUmaounu+AEuDHwkTd8w64UQNkzAwoluJU+gzOwrUFDyV3TodANNB6WF83hMxXU5ezF8YTN6O1+lRfodMev+pnWhCWG1RpjTV+g4RzpdL3fBjcguuIemhEpgscRHI2dd83DTyqRJxyFq9r5I1nRXTG3VohewQtgoI2+xxPl3u8gtuBEZeRupyVxE5I2dZY9u9zDc48fQ3/0ynVuzExPOPkI4pFNno1wS5sxOCKtjuTF5eWooK3cVshdspD2mak3ZbHZN9MAxvBPnz76NwQsHMcnbiZrwGAwdq0LIWQthQ4ZK64gKLcJIRzJNEWXmNCMj5ybYEsr/j8DG2XOK90zyTJ6Fc2w/Lp57jwi6H05HT0zun6R1iUeSvhA2EtSi8oxCZE1GQkIeUtLK6ciRBqRkNMMaV0zb2mRCIRdArQNvYuZx9WNyvA2jg7swPHiYlgl2kgW9CK/HqXX2kn4QBISwQUAx8iUerLLakvzLIxMSc2kwayGd1FdMLoDFiEsoonvZROZkGudKpM94+ouj71ZSSaGeJJ3WRkv9fOTw7fM5yfHbQd/H4CaLOensgnOc/hxdGHf0Ut/zPF0fJsvppLguI0Myr2QTwsZacdP+VAroj0nq/07NaRqlZsIS8+jTN0Vcatr6fB764yMXZVDILNVACGuWkhI5BQFCQAgr1UAQMBECQlgTFZaIKggIYaUOCAImQkAIa6LCElEFASGs1AFBwEQICGFNVFgiqiAghJU6IAiYCAEhrIkKS0QVBISwUgcEARMhIIQ1UWGJqIKAEFbqgCBgIgSEsCYqLBFVEBDCSh0QBEyEgBDWRIUlogoCQlipA4KAiRAQwpqosERUQUAIK3VAEDARAkJYExWWiCoICGGlDggCJkJACGuiwhJRBQEhrNQBQcBECAhhTVRYIqogIISVOiAImAgBIayJCktEFQSEsFIHBAETISCENVFhiaiCgBBW6oAgYCIEhLAmKiwRVRAQwkodEARMhMD/AnvcnUcSxA9XAAAAAElFTkSuQmCC;" vertex="1" parent="1">
                    <mxGeometry x="410" y="100.5" width="79.68" height="79" as="geometry"/>
                </mxCell>
                <mxCell id="24" value="DQTS" style="text;html=1;strokeColor=none;fillColor=none;align=left;verticalAlign=middle;whiteSpace=wrap;rounded=0;labelBackgroundColor=none;labelBorderColor=none;fillStyle=solid;fontColor=#95a3b8;fontSize=20;fontStyle=1" vertex="1" parent="1">
                    <mxGeometry x="500" y="102" width="60" height="30" as="geometry"/>
                </mxCell>
                <mxCell id="25" value="1 Positions" style="text;html=1;strokeColor=none;fillColor=none;align=left;verticalAlign=middle;whiteSpace=wrap;rounded=0;labelBackgroundColor=none;labelBorderColor=none;fillStyle=solid;fontColor=#677180;fontSize=16;" vertex="1" parent="1">
                    <mxGeometry x="500" y="130" width="100" height="20" as="geometry"/>
                </mxCell>
                <mxCell id="26" value="&lt;span style=&quot;font-family: Helvetica, ui-sans-serif; background-color: rgb(2, 6, 23); font-size: 16px;&quot;&gt;$2,227,500&lt;/span&gt;" style="text;html=1;strokeColor=none;fillColor=none;align=left;verticalAlign=middle;whiteSpace=wrap;rounded=0;labelBackgroundColor=none;labelBorderColor=none;fillStyle=solid;fontColor=#677180;fontSize=16;" vertex="1" parent="1">
                    <mxGeometry x="500" y="152" width="80" height="20" as="geometry"/>
                </mxCell>
                <mxCell id="27" value="204.36%" style="rounded=1;whiteSpace=wrap;html=1;labelBackgroundColor=none;labelBorderColor=none;fillStyle=solid;fontSize=15;fontColor=#111827;fillColor=#0f9f6e;gradientColor=none;strokeColor=none;fontStyle=1;arcSize=50;align=center;spacingLeft=0;" vertex="1" parent="1">
                    <mxGeometry x="610" y="117" width="110" height="20" as="geometry"/>
                </mxCell>
                <mxCell id="28" value="8.17 F" style="rounded=1;whiteSpace=wrap;html=1;labelBackgroundColor=none;labelBorderColor=none;fillStyle=solid;fontSize=15;fontColor=#111827;fillColor=#0f9f6e;gradientColor=none;strokeColor=none;fontStyle=1;arcSize=50;align=center;spacingLeft=0;" vertex="1" parent="1">
                    <mxGeometry x="610" y="145" width="110" height="20" as="geometry"/>
                </mxCell>
                <mxCell id="29" value="" style="endArrow=none;dashed=1;html=1;fontSize=12;fontColor=#111827;strokeColor=#3E444D;" edge="1" parent="1">
                    <mxGeometry width="50" height="50" relative="1" as="geometry">
                        <mxPoint x="740" y="99.5" as="sourcePoint"/>
                        <mxPoint x="740" y="179.5" as="targetPoint"/>
                    </mxGeometry>
                </mxCell>
            </root>
        </mxGraphModel>
    </diagram>
</mxfile>